# xmcd
#
# Track frame offsets: 
#        150
#        14388
#        34391
#        49535
#        64691
#        79193
#        93611
#        107105
#        122983
#        137000
#        156962
#
# Disc length: 2277 seconds
#
# Revision: 1
# Processed by: cddbd v1.5.2PL0 Copyright (c) Steve Scherf et al.
# Submitted via: ExactAudioCopy v0.99pb5
#
DISCID=9408e30b
DTITLE=Los Caminantes - Corridos Al Estilo De Los Caminantes
DYEAR=2004
DGENRE=Latin
TTITLE0=La Muerte De La Mafia
TTITLE1=El Potro Lobo Gateado
TTITLE2=Los Dos Hermanos
TTITLE3=Sucedio En La Barranca
TTITLE4=El Hijo Desobediente
TTITLE5=Benito Canales
TTITLE6=La  Mafía Muere
TTITLE7=Arnulfo Gonzalez
TTITLE8=Benjamín Argumedo
TTITLE9=El Corrido De Simón Blanco
TTITLE10=Valentín De La Sierra
EXTD=YEAR: 2004
EXTT0=
EXTT1=
EXTT2=
EXTT3=
EXTT4=
EXTT5=
EXTT6=
EXTT7=
EXTT8=
EXTT9=
EXTT10=
PLAYORDER=
